sean_medium.sfdir

StartChar: exclam
Encoding: 33 33 1
Width: 418
Flags: MW
HStem: 0 137<194 280 194 280> 702 20G<193 279 279 279>
VStem: 194 86<0 137 0 137>
LayerCount: 2
Fore
SplineSet
199 229 m 1
 193 722 l 1
 279 722 l 1
 276 229 l 1
 199 229 l 1
194 137 m 1
 280 137 l 1
 280 0 l 1
 194 0 l 1
 194 137 l 1
EndSplineSet
EndChar

StartChar: quotedbl
Encoding: 34 34 2
Width: 451
Flags: MW
HStem: 658 188<81 200 118 159 118 262 298 340>
VStem: 81 300<658 846>
LayerCount: 2
Fore
SplineSet
262 658 m 1
 298 846 l 1
 381 846 l 1
 340 658 l 1
 262 658 l 1
81 658 m 1
 118 846 l 1
 200 846 l 1
 159 658 l 1
 81 658 l 1
EndSplineSet
EndChar

StartChar: numbersign
Encoding: 35 35 3
Width: 664
Flags: MW
HStem: 228 63<55 71> 241 63<420 439> 449 63<208 227> 458 64<487 507>
LayerCount: 2
Fore
SplineSet
55 228 m 1x80
 71 291 l 1
 161 294 l 1
 208 449 l 1
 122 446 l 1
 138 509 l 1
 227 512 l 1xa0
 286 706 l 1
 350 706 l 1
 292 515 l 1
 441 520 l 1
 503 720 l 1
 568 720 l 1
 507 522 l 1
 583 525 l 1
 574 461 l 1
 487 458 l 1
 439 304 l 1
 516 307 l 1
 503 244 l 1
 420 241 l 1x50
 357 38 l 1
 293 38 l 1
 355 239 l 1
 207 233 l 1
 145 30 l 1
 80 30 l 1
 141 231 l 1
 55 228 l 1x80
273 451 m 1
 226 297 l 1
 374 302 l 1
 422 456 l 1
 273 451 l 1
EndSplineSet
EndChar

StartChar: quotesingle
Encoding: 39 39 4
Width: 269
Flags: MW
HStem: 658 188<85 202 124 163>
VStem: 85 117
LayerCount: 2
Fore
SplineSet
85 658 m 1
 124 846 l 1
 202 846 l 1
 163 658 l 1
 85 658 l 1
EndSplineSet
EndChar

StartChar: parenleft
Encoding: 40 40 5
Width: 460
Flags: MW
VStem: 66 84<224.5 433.5 224.5 440>
LayerCount: 2
Fore
SplineSet
374 870 m 1
 232 726 150 542 150 325 c 0
 150 124 227 -69 368 -214 c 1
 310 -274 l 1
 153 -113 66 102 66 325 c 0
 66 555 154 763 308 921 c 1
 374 870 l 1
EndSplineSet
EndChar

StartChar: parenright
Encoding: 41 41 6
Width: 461
Flags: MW
VStem: 300 85<215.5 426>
LayerCount: 2
Fore
SplineSet
300 320 m 0
 300 532 217 722 72 864 c 1
 131 924 l 1
 291 768 385 562 385 322 c 0
 385 94 294 -125 130 -285 c 1
 63 -234 l 1
 215 -89 300 111 300 320 c 0
EndSplineSet
EndChar

StartChar: plus
Encoding: 43 43 7
Width: 757
Flags: MW
HStem: 283 78<100 347 100 347>
VStem: 347 79<18 283>
LayerCount: 2
Fore
SplineSet
100 283 m 1
 100 361 l 1
 347 361 l 1
 348 588 l 1
 427 588 l 1
 427 360 l 1
 664 360 l 1
 664 282 l 1
 426 282 l 1
 426 18 l 1
 346 18 l 1
 347 283 l 1
 100 283 l 1
EndSplineSet
EndChar

StartChar: comma
Encoding: 44 44 8
Width: 339
Flags: MW
HStem: -112 204<58 247 58 247>
VStem: 58 189
LayerCount: 2
Fore
SplineSet
58 -112 m 1
 152 92 l 1
 247 92 l 1
 127 -112 l 1
 58 -112 l 1
EndSplineSet
EndChar

StartChar: hyphen
Encoding: 45 45 9
Width: 403
Flags: MW
HStem: 233 78<64 346 64 346>
VStem: 64 282<233 311 233 311>
LayerCount: 2
Fore
SplineSet
64 311 m 1
 346 311 l 1
 346 233 l 1
 64 233 l 1
 64 311 l 1
EndSplineSet
EndChar

StartChar: period
Encoding: 46 46 10
Width: 342
Flags: MW
HStem: 0 160<129 220 129 220>
VStem: 129 91<0 160 0 160>
LayerCount: 2
Fore
SplineSet
129 160 m 1
 220 160 l 1
 220 0 l 1
 129 0 l 1
 129 160 l 1
EndSplineSet
EndChar

StartChar: slash
Encoding: 47 47 11
Width: 576
Flags: W
LayerCount: 2
Fore
SplineSet
133 -68 m 1
 47 -68 l 1
 460 844 l 1
 546 844 l 1
 133 -68 l 1
EndSplineSet
EndChar

StartChar: zero
Encoding: 48 48 12
Width: 581
Flags: MW
HStem: -17 81<245 294 294 296> 447 83<293 295 295 343.5>
VStem: 54 87<206.5 307.5 206.5 329.5> 448 86<208 309.5>
LayerCount: 2
Fore
SplineSet
141 257 m 0
 141 156 199 64 291 64 c 0
 382 64 448 155 448 261 c 0
 448 358 390 447 297 447 c 0
 204 447 141 358 141 257 c 0
294 -17 m 2
 159 -17 54 106 54 257 c 0
 54 402 153 530 293 530 c 2
 295 530 l 2
 434 530 534 402 534 256 c 0
 534 107 430 -16 296 -17 c 1
 294 -17 l 2
EndSplineSet
EndChar

StartChar: one
Encoding: 49 49 13
Width: 331
Flags: MW
HStem: 0 21G<179 265 179 179>
VStem: 179 86<0 0>
LayerCount: 2
Fore
SplineSet
178 490 m 1
 264 490 l 1
 265 0 l 1
 179 0 l 1
 178 389 l 1
 41 275 l 1
 -12 332 l 1
 178 490 l 1
EndSplineSet
EndChar

StartChar: two
Encoding: 50 50 14
Width: 459
Flags: MW
HStem: 15 77<19 82 230 451 19 82> 460 80<182 245>
VStem: 319 77<345.5 374.5>
LayerCount: 2
Fore
SplineSet
319 345 m 0
 319 404 281 460 209 460 c 0
 155 460 114 416 77 363 c 1
 20 409 l 1
 73 485 138 540 217 540 c 0
 333 540 396 453 396 357 c 0
 396 334 393 309 386 284 c 0
 362 192 306 127 230 92 c 1
 451 92 l 1
 451 15 l 1
 19 15 l 1
 19 92 l 1
 145 92 242 146 297 258 c 0
 311 287 319 318 319 345 c 0
EndSplineSet
EndChar

StartChar: three
Encoding: 51 51 15
Width: 554
Flags: MW
HStem: -252 76<181.5 243.5 181.5 273.5> 93 74<146 147 146 146 147 188> 446 78<180.5 248.5>
VStem: 366 84<282.5 359> 398 89<-76.5 -27.5>
LayerCount: 2
Fore
SplineSet
366 316 m 0xf0
 366 402 295 446 202 446 c 0
 148 446 101 426 60 383 c 1
 27 439 l 1
 81 496 145 524 216 524 c 0
 353 524 450 450 450 321 c 0xf0
 450 244 411 184 350 145 c 1
 416 122 487 59 487 -36 c 0
 487 -160 342 -252 205 -252 c 0
 155 -252 104 -241 57 -218 c 1
 88 -147 l 1
 124 -166 162 -176 201 -176 c 0
 286 -176 398 -119 398 -34 c 0xe8
 398 -21 395 -8 390 6 c 0
 359 88 278 93 188 93 c 2
 147 93 l 1
 146 93 l 1
 145 167 l 1
 265 167 366 213 366 316 c 0xf0
EndSplineSet
EndChar

StartChar: four
Encoding: 52 52 16
Width: 617
Flags: MW
HStem: 42 78<122 365 22 22 452 599> 507 20G<367 454 454 454>
VStem: 365 87<42 42 42 120>
LayerCount: 2
Fore
SplineSet
122 120 m 1
 365 120 l 1
 367 415 l 1
 122 120 l 1
22 120 m 1
 367 527 l 1
 454 527 l 1
 452 120 l 1
 599 120 l 1
 599 42 l 1
 452 42 l 1
 451 -222 l 1
 364 -222 l 1
 365 42 l 1
 22 42 l 1
 22 120 l 1
EndSplineSet
EndChar

StartChar: five
Encoding: 53 53 17
Width: 521
Flags: MW
HStem: -250 81<223 294 222 322.5> 167 78<239.5 291.5> 456 78<174 444 174 174>
VStem: 90 82<160 160> 420 82<-50.5 54.5>
LayerCount: 2
Fore
SplineSet
252 245 m 0
 391 245 502 157 502 -8 c 0
 502 -147 394 -250 251 -250 c 0
 195 -250 133 -234 70 -198 c 1
 108 -130 l 1
 155 -157 201 -169 243 -169 c 0
 345 -169 420 -98 420 -3 c 0
 420 112 340 167 243 167 c 0
 221 167 197 164 172 160 c 1
 90 160 l 1
 92 534 l 1
 444 534 l 1
 444 456 l 1
 174 456 l 1
 172 238 l 1
 200 243 227 245 252 245 c 0
EndSplineSet
EndChar

StartChar: six
Encoding: 54 54 18
Width: 596
Flags: MW
HStem: -10 89<270 351 270 376> 324 69<287 332> 659 76<507 539>
VStem: 59 84 447 93<161 232>
LayerCount: 2
Fore
SplineSet
507 735 m 1
 539 659 l 1
 441 626 351 573 274 503 c 0
 223 457 177 401 156 340 c 1
 202 374 258 393 316 393 c 0
 439 393 540 322 540 199 c 0
 540 86 439 -10 313 -10 c 0
 166 -10 59 107 59 254 c 0
 59 358 115 455 189 533 c 1
 276 627 385 696 507 735 c 1
447 195 m 0
 447 269 375 324 289 324 c 0
 234 324 180 300 143 259 c 1
 146 154 225 79 315 79 c 0
 387 79 447 127 447 195 c 0
EndSplineSet
EndChar

StartChar: seven
Encoding: 55 55 19
Width: 575
Flags: MW
HStem: 422 83<80 435 80 80>
LayerCount: 2
Fore
SplineSet
80 505 m 1
 530 504 l 1
 530 422 l 1
 178 -222 l 1
 86 -222 l 1
 435 422 l 1
 80 422 l 1
 80 505 l 1
EndSplineSet
EndChar

StartChar: eight
Encoding: 56 56 20
Width: 585
Flags: MW
HStem: -31 75<275 343 275 352> 603 77<266 324>
VStem: 89 85<126.5 190> 104 79<482.5 542 482.5 562.5> 414 84<477 536.5> 437 75<116.5 184.5>
LayerCount: 2
Fore
SplineSet
293 603 m 0xd8
 239 603 183 573 183 511 c 0
 183 454 243 412 309 379 c 1
 365 410 414 450 414 504 c 0
 414 569 355 603 293 603 c 0xd8
294 -31 m 0
 185 -31 89 45 89 148 c 0xe4
 89 232 153 291 228 336 c 1
 159 378 104 436 104 512 c 0
 104 613 198 680 299 680 c 0
 406 680 498 610 498 508 c 0xd8
 498 437 448 380 384 341 c 1
 453 301 512 245 512 159 c 0xc4
 512 51 410 -31 294 -31 c 0
311 44 m 0
 375 44 437 82 437 151 c 0
 437 218 370 263 300 298 c 1
 235 264 174 223 174 161 c 0
 174 92 239 44 311 44 c 0
EndSplineSet
EndChar

StartChar: nine
Encoding: 57 57 21
Width: 602
Flags: MW
HStem: -231 81<89 121> 83 79<273 317.5> 419 90<254.5 336>
VStem: 72 93<259.5 330 259.5 350.5> 453 84<229 230 230 282>
LayerCount: 2
Fore
SplineSet
295 509 m 0
 449 509 537 376 537 238 c 0
 537 122 476 17 395 -64 c 0
 318 -141 224 -198 121 -231 c 1
 89 -150 l 1
 228 -109 369 -8 429 124 c 1
 389 98 342 83 293 83 c 0
 168 83 72 165 72 291 c 0
 72 410 172 509 295 509 c 0
165 297 m 0
 165 222 230 162 316 162 c 0
 370 162 421 187 453 229 c 1
 453 230 l 2
 453 334 380 419 292 419 c 0
 217 419 165 363 165 297 c 0
EndSplineSet
EndChar

StartChar: colon
Encoding: 58 58 22
Width: 367
Flags: MW
HStem: 0 150<146 233 146 233> 341 149<146 233 146 233>
VStem: 146 87<0 150 0 150 341 490>
LayerCount: 2
Fore
SplineSet
146 150 m 1
 233 150 l 1
 233 0 l 1
 146 0 l 1
 146 150 l 1
146 490 m 1
 233 490 l 1
 233 341 l 1
 146 341 l 1
 146 490 l 1
EndSplineSet
EndChar

StartChar: semicolon
Encoding: 59 59 23
Width: 339
Flags: MW
HStem: 341 149<149 236 149 236>
VStem: 149 87<341 490 341 490>
LayerCount: 2
Fore
SplineSet
149 341 m 1
 149 490 l 1
 236 490 l 1
 236 341 l 1
 149 341 l 1
54 -95 m 1
 154 92 l 1
 245 92 l 1
 131 -95 l 1
 54 -95 l 1
EndSplineSet
EndChar

StartChar: less
Encoding: 60 60 24
Width: 821
Flags: W
LayerCount: 2
Fore
SplineSet
207 301 m 1
 711 80 l 1
 711 -7 l 1
 111 257 l 1
 111 343 l 1
 701 613 l 1
 701 527 l 1
 207 301 l 1
EndSplineSet
EndChar

StartChar: equal
Encoding: 61 61 25
Width: 842
Flags: MW
HStem: 178 78<114 724 114 724> 401 78<114 724 114 724>
LayerCount: 2
Fore
SplineSet
114 256 m 1
 724 256 l 1
 724 178 l 1
 114 178 l 1
 114 256 l 1
114 479 m 1
 724 479 l 1
 724 401 l 1
 114 401 l 1
 114 479 l 1
EndSplineSet
EndChar

StartChar: greater
Encoding: 62 62 26
Width: 821
Flags: W
LayerCount: 2
Fore
SplineSet
128 -7 m 1
 128 80 l 1
 623 301 l 1
 114 527 l 1
 114 613 l 1
 719 344 l 1
 719 258 l 1
 128 -7 l 1
EndSplineSet
EndChar

StartChar: question
Encoding: 63 63 27
Width: 560
Flags: MW
HStem: -10 149<218 314 218 314> 226 158<224 272 224 310 224 272> 672 78<267.5 316>
VStem: 218 96<-10 139> 417 85<484.5 574.5>
LayerCount: 2
Fore
SplineSet
224 384 m 1
 320 384 417 434 417 535 c 0
 417 614 352 672 280 672 c 0
 255 672 228 664 204 648 c 1
 173 720 l 1
 209 741 246 750 282 750 c 0
 399 750 502 652 502 532 c 0
 502 406 411 340 311 317 c 1
 310 226 l 1
 224 226 l 1
 224 384 l 1
314 -10 m 1
 218 -10 l 1
 218 139 l 1
 314 139 l 1
 314 -10 l 1
EndSplineSet
EndChar

StartChar: at
Encoding: 64 64 28
Width: 850
Flags: MW
HStem: -158 67<447 449 447 494.5> 25 63<610 650 610 665.5> 40 56<385.5 431> 346 65<406.5 456.5> 510 64<351.5 515.5>
VStem: 59 68<212 295.5 212 310.5> 240 69<179.5 249 179.5 268.5> 526 71<295 314.5> 728 69<197 319.5>
LayerCount: 2
Fore
SplineSet
728 244 m 0xdf80
 728 395 595 510 436 510 c 0
 267 510 127 379 127 212 c 0
 126 42 273 -91 447 -91 c 2
 449 -91 l 1
 530 -90 608 -59 667 -2 c 1
 713 -53 l 1
 640 -121 544 -158 445 -158 c 0
 233 -158 59 3 59 208 c 0
 59 413 234 574 441 574 c 0
 639 574 797 431 797 250 c 0
 797 122 710 25 621 25 c 0xdf80
 579 25 538 50 520 79 c 1
 489 54 451 40 411 40 c 0xbf80
 309 40 240 115 240 215 c 0
 240 322 330 411 441 411 c 0
 524 411 597 364 597 283 c 0
 597 238 572 196 572 148 c 0
 572 115 594 88 626 88 c 0
 674 88 728 150 728 244 c 0xdf80
309 213 m 0
 309 146 355 96 416 96 c 0xbf80
 454 96 488 118 503 152 c 1
 507 197 526 291 526 299 c 0
 526 330 469 346 444 346 c 0
 369 346 309 285 309 213 c 0
EndSplineSet
EndChar

StartChar: A
Encoding: 65 65 29
Width: 761
Flags: MW
HStem: 0 21G<53 146 53 53> 212 74<239 517> 701 20G<377 463 463 463>
LayerCount: 2
Fore
SplineSet
517 286 m 1
 413 608 l 1
 272 286 l 1
 517 286 l 1
540 213 m 1
 239 212 l 1
 146 0 l 1
 53 0 l 1
 377 721 l 1
 463 721 l 1
 697 1 l 1
 608 1 l 1
 540 213 l 1
EndSplineSet
EndChar

StartChar: B
Encoding: 66 66 30
Width: 643
Flags: MW
HStem: 0 75<185 284 185 284> 365 71<265.5 282 282 326 185 338> 647 75<185 279 185 185>
VStem: 99 86<75 364 436 647> 443 85<512 584> 486 86<167 260 140.5 267.5>
LayerCount: 2
Fore
SplineSet
279 722 m 2xf4
 411 722 528 677 528 545 c 0xf8
 528 479 491 431 434 402 c 1
 517 370 572 308 572 212 c 0
 572 69 442 0 284 0 c 2
 99 0 l 1
 99 722 l 1
 279 722 l 2xf4
443 542 m 0
 443 626 363 647 279 647 c 2
 185 647 l 1
 185 436 l 1
 282 436 l 2
 370 436 443 471 443 542 c 0
284 75 m 2
 392 75 486 115 486 219 c 0xf4
 486 316 394 365 282 365 c 0
 249 365 217 364 185 364 c 1
 185 75 l 1
 284 75 l 2
EndSplineSet
EndChar

StartChar: C
Encoding: 67 67 31
Width: 684
Flags: MW
HStem: -7 85<339 458> 648 84<345 464>
VStem: 72 90<272.5 446 272.5 470>
LayerCount: 2
Fore
SplineSet
417 78 m 0
 502 78 566 102 623 145 c 1
 670 75 l 1
 594 23 509 -7 407 -7 c 0
 199 -7 72 136 72 355 c 0
 72 585 207 732 415 732 c 0
 517 732 594 705 667 660 c 1
 626 589 l 1
 568 627 500 648 428 648 c 0
 262 648 162 536 162 356 c 0
 162 189 261 78 417 78 c 0
EndSplineSet
EndChar

StartChar: D
Encoding: 68 68 32
Width: 700
Flags: MW
HStem: 0 86<157 291 291 322> 636 86<157 278 278 292 157 157>
VStem: 71 86<86 636 86 722> 560 90<261 434>
LayerCount: 2
Fore
SplineSet
278 722 m 2
 510 722 650 590 650 350 c 0
 650 132 541 0 322 0 c 2
 71 0 l 1
 71 722 l 1
 278 722 l 2
560 344 m 0
 560 524 461 636 292 636 c 2
 157 636 l 1
 157 86 l 1
 291 86 l 2
 463 86 560 178 560 344 c 0
EndSplineSet
EndChar

StartChar: E
Encoding: 69 69 33
Width: 617
Flags: MW
HStem: 0 84<190 562 190 562> 331 84<190 451 190 451> 638 84<190 530 190 190>
VStem: 104 86<84 331 415 638>
LayerCount: 2
Fore
SplineSet
104 0 m 1
 104 722 l 1
 530 722 l 1
 530 638 l 1
 190 638 l 1
 190 415 l 1
 451 415 l 1
 451 331 l 1
 190 331 l 1
 190 84 l 1
 562 84 l 1
 562 0 l 1
 104 0 l 1
EndSplineSet
EndChar

StartChar: F
Encoding: 70 70 34
Width: 581
Flags: MW
HStem: 0 21G<104 104 104 190> 331 84<190 465 190 465> 638 84<190 534 190 190>
VStem: 104 86<0 331 415 638>
LayerCount: 2
Fore
SplineSet
104 0 m 1
 104 722 l 1
 534 722 l 1
 534 638 l 1
 190 638 l 1
 190 415 l 1
 465 415 l 1
 465 331 l 1
 190 331 l 1
 190 0 l 1
 104 0 l 1
EndSplineSet
EndChar

StartChar: G
Encoding: 71 71 35
Width: 780
Flags: MW
HStem: -6 77<350 472.5> 267 80<483 633 483 713> 645 85<352 478.5>
VStem: 72 88 634 79<113 113>
LayerCount: 2
Fore
SplineSet
436 71 m 0
 511 71 571 86 634 113 c 1
 633 267 l 1
 483 267 l 1
 483 347 l 1
 713 347 l 1
 713 76 l 1
 624 22 527 -6 418 -6 c 0
 201 -6 72 127 72 353 c 0
 72 583 210 730 427 730 c 0
 532 730 614 703 694 656 c 1
 655 584 l 1
 589 624 520 645 437 645 c 0
 267 645 162 534 160 357 c 1
 159 178 264 71 436 71 c 0
EndSplineSet
EndChar

StartChar: H
Encoding: 72 72 36
Width: 759
Flags: MW
HStem: 0 21G<84 171 84 84 593 680 593 593> 321 82<171 593 171 593> 702 20G<85 171 171 171 593 680 680 680>
VStem: 84 87<0 321> 593 87<0 321 321 321 403 722 0 722>
LayerCount: 2
Fore
SplineSet
593 722 m 1
 680 722 l 1
 680 0 l 1
 593 0 l 1
 593 321 l 1
 171 321 l 1
 171 0 l 1
 84 0 l 1
 85 722 l 1
 171 722 l 1
 171 403 l 1
 593 403 l 1
 593 722 l 1
EndSplineSet
EndChar

StartChar: I
Encoding: 73 73 37
Width: 257
Flags: MW
HStem: 0 21G<87 87 87 174> 702 20G<88 174 174 174>
VStem: 87 87<0 722>
LayerCount: 2
Fore
SplineSet
87 0 m 1
 88 722 l 1
 174 722 l 1
 174 0 l 1
 87 0 l 1
EndSplineSet
EndChar

StartChar: J
Encoding: 74 74 38
Width: 317
Flags: MW
HStem: -231 77<29.5 82.5 29.5 98.5> 702 20G<147 234 234 234>
VStem: 147 86<-58.5 722>
LayerCount: 2
Fore
SplineSet
233 0 m 2
 233 -117 159 -231 38 -231 c 0
 0 -231 -35 -217 -64 -192 c 1
 -24 -125 l 1
 -7 -144 17 -154 42 -154 c 0
 123 -154 147 -68 147 0 c 2
 147 722 l 1
 234 722 l 1
 233 0 l 2
EndSplineSet
EndChar

StartChar: K
Encoding: 75 75 39
Width: 667
Flags: MW
HStem: 0 21G<87 87 87 174 511 511 511 613> 702 20G<87 174 174 174 496 598 598 598>
VStem: 87 87<0 321 440 722>
LayerCount: 2
Fore
SplineSet
87 0 m 1
 87 722 l 1
 174 722 l 1
 174 440 l 1
 496 722 l 1
 598 722 l 1
 219 381 l 1
 613 0 l 1
 511 0 l 1
 174 321 l 1
 174 0 l 1
 87 0 l 1
EndSplineSet
EndChar

StartChar: L
Encoding: 76 76 40
Width: 570
Flags: MW
HStem: 0 84<174 538 174 538> 702 20G<87 174 174 174>
VStem: 87 87<84 722 84 722 84 722>
LayerCount: 2
Fore
SplineSet
87 0 m 1
 87 722 l 1
 174 722 l 1
 174 84 l 1
 538 84 l 1
 538 0 l 1
 87 0 l 1
EndSplineSet
EndChar

StartChar: M
Encoding: 77 77 41
Width: 877
Flags: MW
HStem: 0 21G<54 140 54 54 380 465 380 380 722 722 722 808> 702 20G<108 194 194 194 700 743 743 743>
LayerCount: 2
Fore
SplineSet
674 542 m 1
 465 0 l 1
 380 0 l 1
 179 535 l 1
 140 0 l 1
 54 0 l 1
 108 722 l 1
 194 722 l 1
 417 96 l 1
 656 723 l 1
 700 722 l 1
 743 722 l 1
 808 0 l 1
 722 0 l 1
 674 542 l 1
EndSplineSet
EndChar

StartChar: N
Encoding: 78 78 42
Width: 769
Flags: MW
HStem: 0 21G<87 87 87 174 610 610 610 697> 702 20G<87 174 174 174 610 697 697 697>
VStem: 87 87<0 596 0 722> 610 87<0 722 127 722 0 722>
LayerCount: 2
Fore
SplineSet
87 0 m 1
 87 722 l 1
 174 722 l 1
 610 127 l 1
 610 722 l 1
 697 722 l 1
 697 0 l 1
 610 0 l 1
 174 596 l 1
 174 0 l 1
 87 0 l 1
EndSplineSet
EndChar

StartChar: O
Encoding: 79 79 43
Width: 759
Flags: MW
HStem: -6 80<379 381 379 379> 647 81<304 455.5>
VStem: 58 88<276.5 359> 618 89<283 443>
LayerCount: 2
Fore
SplineSet
381 647 m 0
 227 647 146 520 146 357 c 0
 146 196 236 74 382 74 c 0
 539 74 618 203 618 363 c 0
 618 523 530 647 381 647 c 0
381 728 m 0
 588 728 707 570 707 362 c 0
 707 150 583 -6 381 -6 c 2
 379 -6 l 1
 179 -4 58 151 58 359 c 0
 57 571 183 728 381 728 c 0
EndSplineSet
EndChar

StartChar: P
Encoding: 80 80 44
Width: 561
Flags: MW
HStem: 0 21G<87 174 87 87> 251 85<268 322 255 360> 640 82<174 256 174 174>
VStem: 87 87<0 275 0 358 358 640> 441 88<438.5 534.5>
LayerCount: 2
Fore
SplineSet
291 251 m 0
 245 251 210 260 174 275 c 1
 174 0 l 1
 87 0 l 1
 87 722 l 1
 256 722 l 2
 404 722 529 641 529 474 c 0
 529 346 429 251 291 251 c 0
441 480 m 0
 441 589 355 640 256 640 c 2
 174 640 l 1
 174 358 l 1
 205 343 238 336 272 336 c 0
 372 336 441 397 441 480 c 0
EndSplineSet
EndChar

StartChar: Q
Encoding: 81 81 45
Width: 765
Flags: MW
HStem: -237 77<774 774> 646 82<385 387 385 459.5>
VStem: 52 87<282.5 444.5 282.5 468.5> 630 87<278.5 439>
LayerCount: 2
Fore
SplineSet
451 0 m 1
 522 -84 637 -154 774 -160 c 1
 774 -237 l 1
 595 -231 442 -127 362 -5 c 1
 172 6 52 155 52 364 c 0
 52 573 181 728 385 728 c 2
 387 728 l 1
 590 726 717 573 717 358 c 0
 717 173 617 31 451 0 c 1
384 646 m 0
 226 646 139 524 139 365 c 0
 139 200 235 76 385 76 c 0
 547 76 630 200 630 357 c 0
 630 521 535 646 384 646 c 0
EndSplineSet
EndChar

StartChar: R
Encoding: 82 82 46
Width: 684
Flags: MW
HStem: 0 21G<107 193 107 107 585 685 585 585> 310 80<193 268 193 268> 638 84<193 294 193 193>
VStem: 107 86<0 310 0 390 390 638> 475 86<473 561>
LayerCount: 2
Fore
SplineSet
294 722 m 2
 439 722 561 661 561 518 c 0
 561 428 504 367 419 335 c 1
 685 0 l 1
 585 0 l 1
 333 314 l 1
 312 311 290 310 268 310 c 2
 193 310 l 1
 193 0 l 1
 107 0 l 1
 107 722 l 1
 294 722 l 2
475 516 m 0
 475 606 390 638 294 638 c 2
 193 638 l 1
 193 390 l 1
 268 390 l 2
 379 390 475 423 475 516 c 0
EndSplineSet
EndChar

StartChar: S
Encoding: 83 83 47
Width: 584
Flags: MW
HStem: -6 81<253 327.5 253 345> 650 81<248 313.5>
VStem: 73 90<522 588 522 612> 430 92<145.5 222.5>
LayerCount: 2
Fore
SplineSet
455 605 m 1
 402 632 346 650 281 650 c 0
 215 650 163 618 163 558 c 0
 163 486 254 443 330 408 c 0
 424 364 522 300 522 180 c 0
 522 66 414 -6 276 -6 c 0
 198 -6 126 11 57 39 c 1
 84 119 l 1
 149 90 217 75 289 75 c 0
 366 75 430 109 430 182 c 0
 430 263 344 308 266 344 c 0
 175 387 73 443 73 562 c 0
 73 662 165 731 285 731 c 0
 363 731 425 710 485 679 c 1
 455 605 l 1
EndSplineSet
EndChar

StartChar: T
Encoding: 84 84 48
Width: 623
Flags: MW
HStem: 0 21G<255 341 255 255> 644 84<8 620 8 255 341 341 341 620>
VStem: 255 86<0 644 0 644>
LayerCount: 2
Fore
SplineSet
8 644 m 1
 8 728 l 1
 620 728 l 1
 620 644 l 1
 341 644 l 1
 341 0 l 1
 255 0 l 1
 255 644 l 1
 8 644 l 1
EndSplineSet
EndChar

StartChar: U
Encoding: 85 85 49
Width: 706
Flags: MW
HStem: -6 84<306 435 306 450> 702 20G<78 164 164 164 562 649 649 649>
VStem: 78 86<306 323 323 722> 562 86<293 379.5 217 722>
LayerCount: 2
Fore
SplineSet
78 722 m 1
 164 722 l 1
 164 323 l 2
 164 177 237 78 375 78 c 0
 495 78 562 167 562 293 c 2
 562 722 l 1
 649 722 l 1
 648 585 648 448 648 311 c 0
 648 123 541 -6 359 -6 c 0
 178 -6 78 118 78 306 c 2
 78 722 l 1
EndSplineSet
EndChar

StartChar: V
Encoding: 86 86 50
Width: 751
Flags: MW
HStem: 0 21G<350 440 350 350> 702 20G<65 155 155 155 634 723 723 723>
LayerCount: 2
Fore
SplineSet
723 722 m 1
 440 0 l 1
 350 0 l 1
 65 722 l 1
 155 722 l 1
 397 119 l 1
 634 722 l 1
 723 722 l 1
EndSplineSet
EndChar

StartChar: W
Encoding: 87 87 51
Width: 966
Flags: MW
HStem: 0 21G<288 366 288 288 641 718 641 641> 702 20G<54 140 140 140 464 537 537 537 837 919 919 919>
LayerCount: 2
Fore
SplineSet
919 722 m 1
 718 0 l 1
 641 0 l 1
 503 581 l 1
 366 0 l 1
 288 0 l 1
 54 722 l 1
 140 722 l 1
 320 132 l 1
 464 722 l 1
 537 722 l 1
 678 135 l 1
 837 722 l 1
 919 722 l 1
EndSplineSet
EndChar

StartChar: X
Encoding: 88 88 52
Width: 693
Flags: MW
HStem: 0 21G<35 128 35 35 546 637 546 546> 702 20G<77 168 168 168 565 658 658 658>
LayerCount: 2
Fore
SplineSet
77 722 m 1
 168 722 l 1
 352 438 l 1
 565 722 l 1
 658 722 l 1
 398 368 l 1
 637 0 l 1
 546 0 l 1
 350 302 l 1
 128 0 l 1
 35 0 l 1
 307 368 l 1
 77 722 l 1
EndSplineSet
EndChar

StartChar: Y
Encoding: 89 89 53
Width: 626
Flags: MW
HStem: 0 21G<280 366 280 280> 702 20G<45 133 133 133 522 613 613 613>
VStem: 280 86<0 316 316 316>
LayerCount: 2
Fore
SplineSet
522 722 m 1
 613 722 l 1
 366 335 l 1
 366 0 l 1
 280 0 l 1
 280 316 l 1
 45 722 l 1
 133 722 l 1
 319 409 l 1
 522 722 l 1
EndSplineSet
EndChar

StartChar: Z
Encoding: 90 90 54
Width: 671
Flags: MW
HStem: 4 82<140 631 44 44> 629 82<109 606 109 510 109 606>
LayerCount: 2
Fore
SplineSet
109 629 m 1
 109 711 l 1
 606 711 l 1
 606 629 l 1
 140 86 l 1
 631 86 l 1
 631 4 l 1
 44 4 l 1
 44 86 l 1
 510 629 l 1
 109 629 l 1
EndSplineSet
EndChar

StartChar: underscore
Encoding: 95 95 55
Width: 717
Flags: MW
HStem: -250 86<31 692 31 692>
LayerCount: 2
Fore
SplineSet
31 -164 m 1
 692 -164 l 1
 692 -250 l 1
 31 -250 l 1
 31 -164 l 1
EndSplineSet
EndChar

StartChar: grave
Encoding: 96 96 56
Width: 346
Flags: MW
HStem: 656 190<69 218 69 304>
VStem: 69 235<656 846>
LayerCount: 2
Fore
SplineSet
218 656 m 1
 69 846 l 1
 160 846 l 1
 304 656 l 1
 218 656 l 1
EndSplineSet
EndChar

StartChar: a
Encoding: 97 97 57
Width: 621
Flags: MW
HStem: -10 80<221.5 273.5> 0 21G<418 505 418 418> 270 62<284.5 350> 471 75<233.5 304.5>
VStem: 63 86<124.5 197 124.5 213> 418 86<0 121 80 121 170 266 266 266 330 334 334 348>
LayerCount: 2
Fore
SplineSet
418 334 m 2xbc
 418 420 353 471 256 471 c 0
 211 471 166 458 128 431 c 1
 86 492 l 1
 138 529 199 546 262 546 c 0
 404 546 504 473 504 348 c 2
 504 121 l 2
 504 80 504 40 505 0 c 1
 418 0 l 1x7c
 418 80 l 1
 369 25 309 -10 238 -10 c 0
 133 -10 63 52 63 145 c 0
 63 281 196 332 355 332 c 0
 376 332 397 332 418 330 c 1
 418 334 l 2xbc
149 151 m 0
 149 98 193 70 250 70 c 0xbc
 323 70 377 110 418 170 c 1
 418 266 l 1
 390 269 363 270 337 270 c 0
 232 270 149 243 149 151 c 0
EndSplineSet
EndChar

StartChar: b
Encoding: 98 98 58
Width: 601
Flags: MW
HStem: -4 67<280 348.5 262 385> 476 64<294.5 349.5> 763 20G<72 159 159 159>
VStem: 72 87<0 50 0 135 135 406 477 783> 467 88<206.5 318.5>
LayerCount: 2
Fore
SplineSet
313 -4 m 0
 247 -4 198 16 159 50 c 1
 159 0 l 1
 72 0 l 1
 72 783 l 1
 159 783 l 1
 159 477 l 1
 205 516 264 540 325 540 c 0
 471 540 555 417 555 265 c 0
 555 112 457 -4 313 -4 c 0
297 476 m 0
 242 476 191 448 159 406 c 1
 159 135 l 1
 188 90 235 63 289 63 c 0
 408 63 467 154 467 259 c 0
 467 378 402 476 297 476 c 0
EndSplineSet
EndChar

StartChar: c
Encoding: 99 99 59
Width: 480
Flags: MW
HStem: -9 81<260.5 339.5> 463 76<309 337.5>
VStem: 53 88<212.5 319.5 212.5 345.5>
LayerCount: 2
Fore
SplineSet
141 266 m 0
 141 159 203 72 318 72 c 0
 363 72 402 89 433 122 c 1
 480 64 l 1
 431 15 372 -9 307 -9 c 0
 145 -9 53 110 53 268 c 0
 53 423 153 537 309 539 c 0
 368 539 418 522 464 485 c 1
 425 422 l 1
 393 449 357 463 318 463 c 0
 200 463 141 373 141 266 c 0
EndSplineSet
EndChar

StartChar: d
Encoding: 100 100 60
Width: 634
Flags: MW
HStem: -6 68<269.5 333.5> 465 76<266.5 334 229.5 351> 763 20G<468 555 555 555>
VStem: 61 87<208.5 322.5 208.5 345.5> 470 87<147 455 342.5 411 411 411 342.5 526.5>
LayerCount: 2
Fore
SplineSet
325 465 m 0
 208 465 148 378 148 267 c 0
 148 150 217 62 322 62 c 0
 393 62 444 98 470 147 c 1
 470 290 l 1
 470 411 l 1
 430 445 377 465 325 465 c 0
297 541 m 0
 371 541 425 513 470 475 c 1
 470 578 469 681 468 783 c 1
 555 783 l 1
 556 652 557 521 557 389 c 0
 557 296 556 202 556 109 c 0
 556 73 556 36 555 0 c 1
 469 0 l 1
 469 62 l 1
 427 19 367 -6 300 -6 c 0
 152 -6 61 110 61 266 c 0
 61 425 162 541 297 541 c 0
EndSplineSet
EndChar

StartChar: e
Encoding: 101 101 61
Width: 572
Flags: MW
HStem: -8 78<328 330 330 349.5> 245 69<144 429 143 511 144 144> 464 78<290 331>
VStem: 55 89<245 245 245 350.5>
LayerCount: 2
Fore
SplineSet
291 542 m 0
 435 542 515 443 515 297 c 0
 515 280 513 263 511 245 c 1
 144 245 l 1
 158 141 224 70 328 70 c 2
 330 70 l 2
 377 70 423 86 460 115 c 1
 506 56 l 1
 451 14 384 -8 315 -8 c 0
 146 -8 55 108 55 273 c 0
 55 428 152 542 291 542 c 0
429 314 m 1
 422 402 372 464 290 464 c 0
 204 463 152 399 143 314 c 1
 429 314 l 1
EndSplineSet
EndChar

StartChar: f
Encoding: 102 102 62
Width: 475
Flags: MW
HStem: 0 21G<178 264 178 178> 444 81<29 178 29 178 264 459> 727 81<350.5 387.5 317 395>
VStem: 178 86<0 444 0 444 525 593>
LayerCount: 2
Fore
SplineSet
264 525 m 1
 459 525 l 1
 459 444 l 1
 264 444 l 1
 264 0 l 1
 178 0 l 1
 178 444 l 1
 29 444 l 1
 29 525 l 1
 178 525 l 1
 178 593 l 2
 178 724 263 808 371 808 c 0
 404 808 440 800 476 783 c 1
 449 713 l 1
 427 723 405 727 385 727 c 0
 316 727 264 675 264 593 c 2
 264 525 l 1
EndSplineSet
EndChar

StartChar: g
Encoding: 103 103 63
Width: 591
Flags: MW
HStem: -307 80<230.5 327.5 230.5 334.5> -13 74<281.5 403 313 403> 168 72<252 285 272 285> 440 69<467 575 467 467> 469 70<246.5 305.5 225.5 316.5>
VStem: 40 69<-143 -99> 68 86<324 386.5 321 405> 69 72<105 141> 408 80<320 374.5 305 386.5> 468 80<-146.5 -73>
LayerCount: 2
Fore
SplineSet
468 -110 m 0xe440
 468 -36 393 -13 326 -13 c 2
 313 -13 l 2
 250 -13 193 -12 151 1 c 1
 125 -24 109 -59 109 -98 c 0
 109 -188 182 -227 279 -227 c 0
 376 -227 468 -183 468 -110 c 0xe440
256 -307 m 0
 133 -307 40 -251 40 -128 c 0xf440
 40 -70 65 -14 107 24 c 1
 84 43 69 74 69 119 c 0xf1
 69 163 90 202 124 225 c 1
 90 257 68 297 68 351 c 0
 68 459 168 539 283 539 c 0xea
 328 539 365 529 398 509 c 1
 575 509 l 1
 575 440 l 1
 467 440 l 1
 480 417 488 391 488 358 c 0
 488 252 390 168 274 168 c 2
 272 168 l 2
 232 168 194 179 162 197 c 1
 149 182 141 162 141 140 c 0xf180
 141 70 188 59 253 59 c 0
 284 59 319 61 356 61 c 0
 450 61 548 11 548 -98 c 0
 548 -213 413 -307 256 -307 c 0
154 355 m 0xea80
 154 287 215 240 283 240 c 2
 285 240 l 1
 351 241 408 286 408 354 c 0
 408 419 351 469 282 469 c 0
 211 469 154 418 154 355 c 0xea80
EndSplineSet
EndChar

StartChar: h
Encoding: 104 104 64
Width: 588
Flags: MW
HStem: 0 21G<79 166 79 79 428 428 428 515> 464 82<298 340> 763 20G<79 165 165 165>
VStem: 79 86<332.5 399 332.5 483 483 727 727 783> 428 87<0 325>
LayerCount: 2
Fore
SplineSet
428 325 m 2
 428 400 379 464 301 464 c 0
 251 464 197 439 165 399 c 1
 165 266 165 133 166 0 c 1
 79 0 l 1
 79 783 l 1
 165 783 l 1
 165 727 l 1
 165 483 l 1
 210 522 269 546 327 546 c 0
 454 546 514 444 514 333 c 0
 514 222 514 111 515 0 c 1
 428 0 l 1
 428 325 l 2
EndSplineSet
EndChar

StartChar: i
Encoding: 105 105 65
Width: 265
Flags: MW
HStem: 0 21G<92 92 92 178> 513 20G<91 177 177 177> 690 128<89 179 89 179>
VStem: 89 90<690 818 690 818>
LayerCount: 2
Fore
SplineSet
89 690 m 1
 89 818 l 1
 179 818 l 1
 179 690 l 1
 89 690 l 1
92 0 m 1
 91 533 l 1
 177 533 l 1
 178 0 l 1
 92 0 l 1
EndSplineSet
EndChar

StartChar: j
Encoding: 106 106 66
Width: 366
Flags: MW
HStem: -307 82<60 86 55 114.5> 515 20G<163 249 249 249> 683 133<161 252 161 252>
VStem: 163 86<-120 535>
LayerCount: 2
Fore
SplineSet
161 683 m 1
 161 816 l 1
 252 816 l 1
 252 683 l 1
 161 683 l 1
39 -223 m 1
 46 -224 52 -225 58 -225 c 0
 114 -225 163 -179 163 -120 c 2
 163 535 l 1
 249 535 l 1
 249 -120 l 2
 249 -224 165 -307 64 -307 c 0
 56 -307 47 -306 39 -305 c 1
 39 -223 l 1
EndSplineSet
EndChar

StartChar: k
Encoding: 107 107 67
Width: 615
Flags: MW
HStem: 0 21G<110 110 110 197 475 475 475 583> 513 20G<449 559 559 559> 763 20G<110 197 197 197>
VStem: 110 87<0 251 327 783>
LayerCount: 2
Fore
SplineSet
110 0 m 1
 110 783 l 1
 197 783 l 1
 197 327 l 1
 449 533 l 1
 559 533 l 1
 268 290 l 1
 583 0 l 1
 475 0 l 1
 197 251 l 1
 197 0 l 1
 110 0 l 1
EndSplineSet
EndChar

StartChar: l
Encoding: 108 108 68
Width: 284
Flags: MW
HStem: 1 21G<101 101 101 187> 763 20G<100 187 187 187>
VStem: 101 86<1 783>
LayerCount: 2
Fore
SplineSet
101 1 m 1
 100 783 l 1
 187 783 l 1
 187 1 l 1
 101 1 l 1
EndSplineSet
EndChar

StartChar: m
Encoding: 109 109 69
Width: 939
Flags: MW
HStem: 1 20G 466 80<308 350.5> 513 20G<89 175 175 175>
VStem: 89 86<327.5 479 479 533> 431 86<296.5 360 294.5 388.5> 772 86<1 348>
LayerCount: 2
Fore
SplineSet
431 356 m 0xdc
 431 421 385 466 316 466 c 0xdc
 263 466 209 440 175 399 c 1
 175 256 175 148 174 0 c 1
 87 0 l 1
 88 159 88 271 89 431 c 1
 89 533 l 1
 175 533 l 1xbc
 175 479 l 1
 218 521 278 546 338 546 c 0
 418 546 470 507 496 454 c 1
 539 509 608 544 678 544 c 0
 801 544 858 456 858 348 c 2
 858 1 l 1
 772 1 l 1
 771 116 771 230 771 344 c 0
 771 414 724 462 652 462 c 0
 599 462 547 435 514 393 c 1
 516 380 517 367 517 353 c 0
 517 236 517 119 516 1 c 1
 430 1 l 1
 430 119 431 237 431 356 c 0xdc
EndSplineSet
EndChar

StartChar: n
Encoding: 110 110 70
Width: 599
Flags: MW
HStem: 0 21G<79 166 79 79 440 526 440 440> 462 82<317 319 317 317> 513 20G<81 168 168 168>
VStem: 81 87<325 470 470 533> 440 86<0 345 345 351 0 380>
LayerCount: 2
Fore
SplineSet
343 544 m 0xd8
 463 544 526 460 526 351 c 2
 526 0 l 1
 440 0 l 1
 440 345 l 2
 440 415 390 462 319 462 c 2
 317 462 l 1xd8
 261 461 204 433 168 390 c 1
 168 260 167 130 166 0 c 1
 79 0 l 1
 81 144 81 287 81 431 c 2
 81 533 l 1
 168 533 l 1xb8
 168 470 l 1
 214 516 278 544 343 544 c 0xd8
EndSplineSet
EndChar

StartChar: o
Encoding: 111 111 71
Width: 613
Flags: MW
HStem: -8 83<254.5 360 254.5 380> 461 79<251.5 355>
VStem: 58 88<219.5 329 219.5 346.5> 464 87<213 322.5>
LayerCount: 2
Fore
SplineSet
146 278 m 0
 146 161 204 75 305 75 c 0
 415 75 464 159 464 267 c 0
 464 378 404 461 306 461 c 0
 197 461 146 380 146 278 c 0
306 -8 m 0
 142 -8 58 108 58 267 c 0
 58 426 153 540 304 540 c 0
 464 540 551 427 551 269 c 0
 551 107 454 -8 306 -8 c 0
EndSplineSet
EndChar

StartChar: p
Encoding: 112 112 72
Width: 630
Flags: MW
HStem: -300 21G<79 166 79 79> -7 72<284 354 268 391> 476 64<317.5 372.5> 513 20G<79 166 166 166>
VStem: 79 87<-300 -300> 488 85<216 331>
LayerCount: 2
Fore
SplineSet
314 -7 m 0xec
 254 -7 209 8 168 36 c 1
 168 -76 167 -188 166 -300 c 1
 79 -300 l 1
 81 -154 82 -9 82 137 c 0
 82 269 82 403 79 533 c 1
 166 533 l 1xdc
 166 463 l 1
 216 510 284 540 351 540 c 0
 494 540 573 415 573 273 c 0
 573 111 468 -7 314 -7 c 0xec
324 476 m 0xec
 257 476 198 434 167 380 c 1
 168 295 168 211 168 126 c 2
 168 109 l 1
 203 80 245 65 291 65 c 0
 417 65 488 155 488 277 c 0
 488 385 421 476 324 476 c 0xec
EndSplineSet
EndChar

StartChar: q
Encoding: 113 113 73
Width: 638
Flags: MW
HStem: -300 21G<473 559 473 473> -8 64<297 358.5> 472 66<279 349.5 242.5 364>
VStem: 55 90<206 325.5 206 343.5> 473 86<-300 29 29 29 91 413 413 413 485 533 -300 533>
LayerCount: 2
Fore
SplineSet
316 538 m 0
 383 538 432 518 473 485 c 1
 473 533 l 1
 559 533 l 1
 559 -300 l 1
 473 -300 l 1
 473 29 l 1
 431 4 384 -8 333 -8 c 0
 172 -8 55 101 55 268 c 0
 55 419 169 538 316 538 c 0
145 272 m 0
 145 140 236 56 358 56 c 0
 401 56 439 68 473 91 c 1
 473 413 l 1
 438 451 390 472 338 472 c 0
 220 472 145 379 145 272 c 0
EndSplineSet
EndChar

StartChar: r
Encoding: 114 114 74
Width: 415
Flags: MW
HStem: 0 21G<81 167 81 81> 461 80<320 366.5> 513 20G<81 167 167 167>
VStem: 81 86<0 370 462 533>
LayerCount: 2
Fore
SplineSet
362 461 m 0xd0
 276 461 212 421 167 370 c 1
 167 0 l 1
 81 0 l 1
 81 533 l 1
 167 533 l 1xb0
 167 462 l 1
 215 505 278 541 362 541 c 0
 374 541 386 540 398 539 c 1
 389 460 l 1
 380 461 371 461 362 461 c 0xd0
EndSplineSet
EndChar

StartChar: s
Encoding: 115 115 75
Width: 495
Flags: MW
HStem: -6 77<201 264.5 201 279.5> 468 72<233.5 284.5 198.5 286.5>
VStem: 68 87<362.5 420.5 362.5 440.5> 358 91<115 172>
LayerCount: 2
Fore
SplineSet
263 468 m 0
 204 468 155 445 155 396 c 0
 155 329 227 316 287 299 c 1
 371 277 449 238 449 147 c 0
 449 48 340 -6 219 -6 c 0
 146 -6 82 13 20 53 c 1
 59 120 l 1
 113 87 169 71 233 71 c 0
 296 71 358 85 358 145 c 0
 358 199 294 217 233 233 c 0
 149 255 68 298 68 398 c 0
 68 483 147 540 250 540 c 0
 319 540 371 522 425 491 c 1
 392 424 l 1
 353 453 310 468 263 468 c 0
EndSplineSet
EndChar

StartChar: t
Encoding: 116 116 76
Width: 445
Flags: MW
HStem: -6 74<284 305.5> 441 79<238 425>
VStem: 152 86<164 198 198 440 440 440 520 625 625 625>
LayerCount: 2
Fore
SplineSet
27 440 m 1
 26 520 l 1
 152 520 l 1
 152 625 l 1
 238 677 l 1
 238 520 l 1
 425 520 l 1
 425 441 l 1
 238 441 l 1
 238 198 l 2
 238 130 254 68 314 68 c 0
 341 68 368 75 391 89 c 1
 417 23 l 1
 375 4 329 -6 282 -6 c 0
 200 -6 152 61 152 147 c 2
 152 440 l 1
 27 440 l 1
EndSplineSet
EndChar

StartChar: u
Encoding: 117 117 77
Width: 599
Flags: MW
HStem: -11 67<260.5 304.5> 0 21G<437 524 437 437> 513 20G<84 171 171 171 437 524 524 524>
VStem: 84 87<168 197 197 533> 437 87<0 55 55 55 137 533 0 533>
LayerCount: 2
Fore
SplineSet
171 197 m 2xb8
 171 117 217 56 304 56 c 0xb8
 362 56 412 89 437 137 c 1
 437 533 l 1
 524 533 l 1
 524 0 l 1
 437 0 l 1x78
 437 55 l 1
 394 13 336 -11 273 -11 c 0
 155 -11 84 64 84 168 c 2
 84 533 l 1
 171 533 l 1
 171 197 l 2xb8
EndSplineSet
EndChar

StartChar: v
Encoding: 118 118 78
Width: 572
Flags: MW
HStem: 0 21G<242 324 242 242> 513 20G<34 125 125 125 447 538 538 538>
LayerCount: 2
Fore
SplineSet
34 533 m 1
 125 533 l 1
 279 97 l 1
 447 533 l 1
 538 533 l 1
 324 0 l 1
 242 0 l 1
 34 533 l 1
EndSplineSet
EndChar

StartChar: w
Encoding: 119 119 79
Width: 933
Flags: MW
HStem: 0 21G<251 333 251 251 590 672 590 590> 513 20G<54 140 140 140 425 507 507 507 808 900 900 900>
LayerCount: 2
Fore
SplineSet
54 533 m 1
 140 533 l 1
 284 101 l 1
 425 533 l 1
 507 533 l 1
 630 99 l 1
 808 533 l 1
 900 533 l 1
 672 0 l 1
 590 0 l 1
 465 404 l 1
 333 0 l 1
 251 0 l 1
 54 533 l 1
EndSplineSet
EndChar

StartChar: x
Encoding: 120 120 80
Width: 578
Flags: MW
HStem: 0 21G<44 138 44 44 427 528 427 427> 513 20G<80 181 181 181 434 529 529 529>
LayerCount: 2
Fore
SplineSet
80 533 m 1
 181 533 l 1
 297 355 l 1
 434 533 l 1
 529 533 l 1
 346 279 l 1
 528 0 l 1
 427 0 l 1
 296 202 l 1
 138 0 l 1
 44 0 l 1
 247 276 l 1
 80 533 l 1
EndSplineSet
EndChar

StartChar: y
Encoding: 121 121 81
Width: 582
Flags: MW
HStem: -300 21G<60 153 60 60> 513 20G<41 134 134 134 458 544 544 544>
LayerCount: 2
Fore
SplineSet
41 533 m 1
 134 533 l 1
 286 172 l 1
 458 533 l 1
 544 533 l 1
 153 -300 l 1
 60 -300 l 1
 242 81 l 1
 41 533 l 1
EndSplineSet
EndChar

StartChar: z
Encoding: 122 122 82
Width: 499
Flags: MW
HStem: 0 80<126 478 26 26> 443 80<71 468 71 369 71 468>
LayerCount: 2
Fore
SplineSet
71 443 m 1
 71 523 l 1
 468 523 l 1
 468 443 l 1
 126 80 l 1
 478 80 l 1
 478 0 l 1
 26 0 l 1
 26 80 l 1
 369 443 l 1
 71 443 l 1
EndSplineSet
EndChar

StartChar: bar
Encoding: 124 124 83
Width: 88
Flags: MW
HStem: -21 20G<3 90 90 90> 1 21G<3 3 3 90> 512 20G<3 90 90 90> 535 21G<3 90 3 3>
VStem: 3 87<-377 -1 -377 -1 1 532 535 847>
LayerCount: 2
Fore
SplineSet
3 847 m 1
 90 847 l 1
 90 535 l 1
 3 535 l 1
 3 847 l 1
3 1 m 1
 3 532 l 1
 90 532 l 1
 90 1 l 1
 3 1 l 1
3 -377 m 1
 3 -1 l 1
 90 -1 l 1
 90 -377 l 1
 3 -377 l 1
EndSplineSet
EndChar
